<svg version="1.1" id="Layer_1" xmlns="http://www.w3.org/2000/svg" xmlns:xlink="http://www.w3.org/1999/xlink" x="0px" y="0px" viewBox="0 0 220.9 31.6" style="enable-background:new 0 0 220.9 31.6;" xml:space="preserve">
 <style type="text/css">
  .st0{fill:#FFFFFF;}
	.st1{fill:#645FA9;}
	.st2{fill:#C8234A;}
	.st3{fill:#0088CF;}
	.st4{fill:#F26F21;}
	.st5{fill:#0DB04B;}
	.st6{fill:#FCB813;}
 </style>
 <g id="Layer_3">
  <g>
   <g>
    <g>
     <path class="st0" d="M25.7,3.6c0.7-1.2,1.8-2.3,3.2-3c2.2-1,5.1-0.5,7,1c1.7,1.5,2.7,3.7,2.2,6.1c0.5,0,0.8-0.3,1.3-0.5
					c2.7-0.8,5.5,0,7.3,2.3c1.3,1.7,1.7,4.2,0.8,6.1c-0.3,1-1,1.8-1.8,2.7l0.2,0.2c2.5,0.2,5,2,5.8,4.5s0.2,5-1.7,6.8
					c-1.5,1.5-3.3,2-5.3,1.8H7.1c-3.2,0-5.5-1.3-6.6-4c-1-2.3-0.5-5.3,1.3-7.1c1.2-1.2,2.7-1.7,4.3-2c-1.8-1.7-2.7-4-2.2-6.5
					c0.2-1.8,1.8-4,3.8-4.7c1.7-0.7,4-0.5,5.6,0.3l0,0c-0.5-2.7,0.7-5.1,3-6.6c2-1.3,5.1-1.3,7.1,0.2C24.4,1.8,25.2,2.8,25.7,3.6z">
     </path>
     <g>
      <path class="st1" d="M36.3,4.6c-0.3-0.7-0.8-1.3-1.4-1.8c-1.5-1.3-4-1.5-5.8-0.5c-1.7,0.8-2.7,2.7-2.7,4.5l0,0h2.2
						C28.8,7,28.9,7,29.1,7.1c-0.9,0.7-2.6,1.3-2.2,2.7l2.3,14.8l0,0L35.7,10C36.7,8.3,37.2,6.3,36.3,4.6z">
      </path>
      <path class="st2" d="M22.4,24.4l2.7-16.9c0.2-1.2-0.2-2.3-0.7-3.3c-0.5-1.1-1.5-1.8-2.5-2.3c-1.8-0.8-4.2-0.3-5.5,1
						s-2,3.3-1.3,5.3L21.7,23L22.4,24.4L22.4,24.4z">
      </path>
      <path class="st3" d="M46,11.2c0.8,1.5,0.7,3.8-0.3,5.1c-0.7,1-1.7,1.5-2.5,2.2L29.4,28l0,0l0.2-0.5l7.3-16.4
						c1.2-2,3.2-3,5.3-2.7C43.7,8.8,45.2,9.8,46,11.2z">
      </path>
      <path class="st4" d="M7,17.4l15.3,10.5h0.2l-7.6-16.8c-1.3-2.2-4-3.2-6.5-2.3c-1.5,0.7-2.7,2-3,3.5C4.6,14.2,5.3,16.2,7,17.4z">
      </path>
      <path class="st5" d="M49.3,28.4c1.2-1.3,1.3-3.7,0.7-5.1c-0.5-1.2-1.5-2.2-2.7-2.7c-1.5-0.7-3.5-0.5-4.8,0.3l-13.6,9.4h16.3
						C46.8,30.3,48.1,29.7,49.3,28.4z">
      </path>
      <path class="st6" d="M22.7,30.3L9.1,20.7c-1.3-0.8-3.3-1-4.8-0.3c-1.2,0.5-2.2,1.5-2.7,2.7c-0.8,1.7-0.5,3.8,0.7,5.1
						c1,1.3,2.5,2,4.2,2L22.7,30.3z">
      </path>
     </g>
    </g>
   </g>
   <g>
    <g>
     <path d="M83.7,12.2c-0.7-3-3-3.8-5.8-4c-8.8-0.8-10.3,5.8-10.3,8.6c0,4.8,1.3,8.6,10,8.6c1.7,0,6-1.7,6-4.3h12.5
					c-0.5,8-13.8,9.8-19.6,9.8c-12,0-22.3-2.2-21.8-14.1C55,8.3,63,2.4,78.9,2.8c8.8,0.2,17.3,3,17.3,9.3H83.7V12.2z">
     </path>
     <path d="M208.3,12.2c-0.7-3-3-3.8-5.8-4c-8.8-0.8-10.3,5.8-10.3,8.5c0,4.8,1.3,8.6,10,8.6c1.7,0,6-1.7,6-4.3h12.5
					c-0.5,8-13.8,9.8-19.6,9.8c-12,0-22.3-2.2-21.8-14.1c0.3-8.5,8.3-14.4,24.2-14c8.8,0.2,17.4,3,17.4,9.3h-12.6L208.3,12.2
					L208.3,12.2z">
     </path>
     <path d="M98.5,3.4h16.1l13.8,19.3h0.2V3.4h10.3v26.7h-15.4l-14.4-19.3h-0.2v19.3H98.5C98.5,30.2,98.5,3.4,98.5,3.4z">
     </path>
     <path d="M142,3.4h19.6c9.5,0,14.9,2.7,14.9,6.6c0,2.3-2.3,5.3-7.5,6.1l0,0c6.1,0.3,8.5,4.3,8.5,6.6c0,4.8-5.3,7.3-15.9,7.3H142
					V3.4z M153.5,13.9h3.3c5,0,7.6-0.3,7.6-2.5s-2.2-3-6.6-3h-4.2v5.5H153.5z M153.5,24.7h3.3c6,0,8.3-0.7,8.3-2.7
					c0-2.2-2.8-3-7.3-3h-4.2v5.6h-0.1V24.7z">
     </path>
    </g>
   </g>
  </g>
 </g>
</svg>